<!DOCTYPE svg PUBLIC "-//W3C//DTD SVG 1.1//EN" "http://www.w3.org/Graphics/SVG/1.1/DTD/svg11.dtd">
<svg xmlns="http://www.w3.org/2000/svg" viewBox="0 0 300 168">
<path fill="#e6effb" stroke="#e6effb" d="M88.108 3.016C53.86 10.256 26.676 56.978 26.733 108.5c.038 33.28 13.188 52.89 38.046 56.738 26.674 4.128 42.396-9.797 73.699-65.282 4.796-8.501 9.385-16.506 10.198-17.789 1.435-2.264 1.912-1.613 16.378 22.357 28.196 46.719 38.775 57.626 58.922 60.744 30.263 4.684 49.218-17.581 49.181-57.768-.069-74.548-51.156-126.501-94.987-96.598-5.73 3.91-16.439 14.493-21.554 21.301l-2.782 3.704-11.168-11.204C123.941 5.918 106.734-.922 88.108 3.016m103.949 23.043c-6.63 3.008-12.226 8.036-19.106 17.167-7.923 10.514-7.761 9.681-3.209 16.458 2.148 3.199 9.236 14.591 15.752 25.316 30.25 49.791 36.938 56.785 50.656 52.975 9.311-2.586 12.85-10.963 12.85-30.414 0-53.031-28.808-94.265-56.943-81.502m-99.725 3.863C70.96 35.264 52.961 73.544 54.21 111c.605 18.147 4.936 25.666 15.844 27.509 12.728 2.151 19.196-4.577 49.803-51.808l17.357-26.784-5.588-7.295c-13.594-17.748-27.338-25.688-39.294-22.7" fill-rule="evenodd"/>
<path fill="#fcfcfc" stroke="#fcfcfc" d="M90 3.017C55.84 8.955 29.104 51.833 27.345 103.5c-1.412 41.486 14.65 62.616 46.621 61.332 22.358-.898 35.627-14.316 64.358-65.08 6.147-10.861 11.408-19.748 11.691-19.75.283-.001 5.679 8.661 11.99 19.248 31.534 52.902 43.112 64.518 65.363 65.582 28.852 1.379 44.094-16.37 45.369-52.832C274.773 53.73 243.181 3.156 204.5 2.765c-16.136-.163-30.597 8.369-45.425 26.802l-5.76 7.16-4.907-6.003C131.508 10.055 109.521-.376 90 3.017m106.718 21.037c-8.573 2.103-15.636 7.86-24.884 20.283-6.853 9.205-6.784 8.778-2.449 15.217 1.862 2.765 8.003 12.659 13.646 21.986 30.495 50.404 37.506 58.432 49.991 57.232 15.357-1.476 20.421-21.033 14.393-55.597-6.617-37.947-29.28-64.375-50.697-59.121M90.764 29.936c-19.812 6.397-36.935 42.18-37.116 77.564-.104 20.366 5.018 29.919 16.75 31.241 9.254 1.043 17.836-4.786 27.944-18.981C104.821 110.663 137 60.973 137 60.067c0-4.038-20.626-25.129-27.585-28.207-5.236-2.317-14.481-3.27-18.651-1.924" fill-rule="evenodd"/>
<path fill="#0480f9" stroke="#0480f9" d="M85.628 4.11c-33.196 7.796-60.969 60.102-58.332 109.86 1.755 33.128 16.9 50.431 44.204 50.502 24.723.063 36.652-11.787 68.276-67.821l10.073-17.85 2.43 3.85c1.337 2.117 7.24 11.882 13.118 21.701 30.579 51.074 42.426 61.697 67.424 60.455 29.202-1.451 43.986-28.63 39.252-72.162-4.882-44.9-27.184-79.715-56.482-88.173-18.811-5.431-37.987 2.978-55.495 24.334l-6.404 7.812-11.596-11.678c-12.578-12.667-20.047-17.65-30.561-20.389-6.441-1.678-19.68-1.903-25.907-.441m109.511 19.978c-7.46 2.279-18.014 11.724-26.011 23.28l-4.061 5.868 2.813 4.132c1.547 2.273 8.125 12.907 14.619 23.632 30.635 50.6 36.891 58 49.035 58 15.785 0 21.776-17.951 16.916-50.683-6.379-42.96-29.954-71.363-53.311-64.229M88.315 30.944c-16.696 7.58-30.45 33.445-34.378 64.648C50.493 122.952 57.406 139 72.635 139c12.971 0 15.683-3.128 55.631-64.185l9.607-14.684-5.127-6.816c-15.626-20.77-30.956-28.489-44.431-22.371" fill-rule="evenodd"/>
<path fill="#0766e2" stroke="#0766e2" d="M83 5.221c-24.588 8.621-45.168 36.936-52.442 72.153-1.706 8.256-1.939 12.076-.415 6.781l.964-3.346 11.696.723c6.765.417 12.007 1.195 12.432 1.845.444.679.743.332.756-.877.044-4.11 7.806-24.542 12.019-31.64 8.995-15.152 19.28-22.359 30.945-21.683 17.941 1.04 30.455 15.115 66.077 74.323 18.886 31.39 27.97 43.95 36.968 51.117 3.335 2.656 3.393 2.667 1.221.24l-2.278-2.547 3.929-7.682c2.161-4.226 4.361-8.233 4.89-8.905.529-.673 1.285-2.569 1.68-4.214l.717-2.99 2.67 3.056c1.469 1.681 3.571 3.692 4.671 4.469 1.1.777-.502-1.277-3.56-4.565-6.329-6.805-15.547-20.57-32.13-47.979-26.063-43.076-39.052-59.635-55.664-70.96C114.608 3.31 96.721.41 83 5.221M54.195 87.5c.02 1.65.244 2.204.498 1.231.254-.973.237-2.323-.037-3-.274-.677-.481.119-.461 1.769m-25.943 5c.011 2.2.216 2.982.455 1.738.239-1.244.23-3.044-.02-4s-.446.062-.435 2.262m24.98 1.5c0 1.925.206 2.713.457 1.75.252-.963.252-2.537 0-3.5-.251-.963-.457-.175-.457 1.75m-26.074 7c0 1.375.227 1.938.504 1.25.278-.687.278-1.812 0-2.5-.277-.687-.504-.125-.504 1.25m201.592 38.706c1.238.238 3.262.238 4.5 0 1.238-.239.225-.434-2.25-.434s-3.488.195-2.25.434M208 158.911c1.375 1.124 2.95 2.048 3.5 2.051 1.07.008-.738-1.377-4-3.063-1.328-.686-1.161-.347.5 1.012m15.75 5.751c.688.278 1.813.278 2.5 0 .688-.277.125-.504-1.25-.504s-1.937.227-1.25.504" fill-rule="evenodd"/>
</svg>