<!DOCTYPE svg PUBLIC "-//W3C//DTD SVG 1.1//EN" "http://www.w3.org/Graphics/SVG/1.1/DTD/svg11.dtd">
<svg xmlns="http://www.w3.org/2000/svg" viewBox="0 0 32 33">
<path d="M1 .545c0 .3 2.265 3.901 5.033 8.003 6.979 10.343 6.959 9.6.456 17.008-3.154 3.592-5.416 6.849-5.027 7.238.39.388 1.682-.433 2.873-1.826 1.191-1.393 3.794-4.443 5.785-6.779l3.621-4.246 4.379 6.497c4.229 6.273 4.527 6.498 8.63 6.528 5.291.04 5.405.673-1.818-10.068l-6.067-9.024 5.69-6.482c3.13-3.565 5.382-6.79 5.004-7.168-.377-.378-3.245 2.147-6.373 5.61L17.5 12.133l-4-6.039C9.661.298 9.329.054 5.25.028 2.912.012 1 .245 1 .545m4.652 4.322c10.77 16.707 18.024 26.084 20.196 26.108 2.75.029 3.626 1.645-9.348-17.257C10.166 4.49 8.011 2.056 6.152 2.031L3.804 2l1.848 2.867" fill-rule="evenodd"/>
</svg>